<?xml version="1.0" encoding="UTF-8"?>
<!DOCTYPE svg PUBLIC "-//W3C//DTD SVG 1.1//EN" "http://www.w3.org/Graphics/SVG/1.1/DTD/svg11.dtd">
<svg xmlns="http://www.w3.org/2000/svg" version="1.1" width="266px" height="150px" style="shape-rendering:geometricPrecision; text-rendering:geometricPrecision; image-rendering:optimizeQuality; fill-rule:evenodd; clip-rule:evenodd" xmlns:xlink="http://www.w3.org/1999/xlink">
<g><path style="opacity:1" fill="#ec1d2a" d="M 107.5,91.5 C 104.788,90.6414 102.122,89.4748 99.5,88C 100.766,87.6905 101.933,87.1905 103,86.5C 103.688,85.6683 103.521,85.0016 102.5,84.5C 100.15,85.0915 97.9834,86.0915 96,87.5C 91.8487,86.6502 91.0154,84.8169 93.5,82C 89.1242,81.1783 84.7909,80.1783 80.5,79C 80.0338,77.7012 80.0338,76.2012 80.5,74.5C 77.786,74.75 75.1194,74.9167 72.5,75C 68.9954,74.0357 68.662,72.5357 71.5,70.5C 75.7562,68.1122 79.5895,65.1122 83,61.5C 83.6667,60.5 83.6667,59.5 83,58.5C 80.4794,55.6483 77.3127,54.1483 73.5,54C 68.3752,50.3481 62.7086,48.5148 56.5,48.5C 55.8333,48.5 55.5,48.1667 55.5,47.5C 55.5,47.1667 55.5,46.8333 55.5,46.5C 56.0428,44.6569 55.3761,42.9902 53.5,41.5C 51.2324,42.5443 48.8991,42.711 46.5,42C 45.6634,40.9887 45.33,39.8221 45.5,38.5C 41.915,38.0935 39.2484,36.2602 37.5,33C 35.765,32.3486 34.0983,32.5153 32.5,33.5C 31.7379,32.3717 31.0712,31.2051 30.5,30C 31.624,29.7508 32.624,29.2508 33.5,28.5C 31.8164,27.1456 31.3164,25.4789 32,23.5C 34.8239,22.1819 37.3239,20.5152 39.5,18.5C 44.0697,15.3836 49.0697,13.0502 54.5,11.5C 59.5963,9.46422 64.9297,8.29755 70.5,8C 73.0094,6.57874 75.3428,4.91207 77.5,3C 82.202,2.17169 86.8687,2.33836 91.5,3.5C 92.714,5.06911 94.3807,5.90245 96.5,6C 97.3366,7.01127 97.67,8.17793 97.5,9.5C 99.2624,9.35729 100.929,9.69063 102.5,10.5C 103.088,12.9109 104.255,14.9109 106,16.5C 106.234,37.8591 107.067,59.1925 108.5,80.5C 108.499,84.3492 108.165,88.0159 107.5,91.5 Z"/></g>
<g><path style="opacity:1" fill="#814190" d="M 140.5,25.5 C 139.402,26.397 139.402,27.2303 140.5,28C 130.313,27.8934 120.313,29.0601 110.5,31.5C 109.505,37.1278 109.171,42.7945 109.5,48.5C 108.51,42.69 108.177,36.69 108.5,30.5C 119.021,27.9688 129.688,26.3022 140.5,25.5 Z"/></g>
<g><path style="opacity:1" fill="#74369d" d="M 141.5,24.5 C 155.131,26.3195 169.131,27.1529 183.5,27C 195.294,28.3438 206.961,30.3438 218.5,33C 219.672,33.4186 220.672,34.0853 221.5,35C 216.764,35.6842 212.097,36.6842 207.5,38C 206.167,39.3333 206.167,40.6667 207.5,42C 206.584,42.2784 205.918,42.7784 205.5,43.5C 190.084,47.4714 175.418,53.3047 161.5,61C 167.016,61.1733 172.349,61.6733 177.5,62.5C 177.918,63.2216 178.584,63.7216 179.5,64C 197.898,65.1454 215.564,69.1454 232.5,76C 231.167,76.6667 231.167,77.3333 232.5,78C 235.854,78.4552 239.187,78.9552 242.5,79.5C 247.465,81.649 252.132,84.3157 256.5,87.5C 257.426,90.0949 259.093,92.0949 261.5,93.5C 243.176,94.333 224.842,94.833 206.5,95C 202.205,95.9119 197.872,96.5785 193.5,97C 192.584,97.2784 191.918,97.7784 191.5,98.5C 157.678,104.439 126.012,116.106 96.5,133.5C 93.001,133.741 92.6677,132.908 95.5,131C 96.8874,127.859 99.054,124.692 102,121.5C 104.621,116.193 107.287,110.86 110,105.5C 110.455,102.146 110.955,98.8131 111.5,95.5C 112.164,93.0221 112.497,90.3555 112.5,87.5C 111.627,76.6695 110.627,66.0028 109.5,55.5C 109.5,53.1667 109.5,50.8333 109.5,48.5C 109.171,42.7945 109.505,37.1278 110.5,31.5C 120.313,29.0601 130.313,27.8934 140.5,28C 139.402,27.2303 139.402,26.397 140.5,25.5C 140.5,24.8333 140.833,24.5 141.5,24.5 Z"/></g>
<g><path style="opacity:1" fill="#eb1d2a" d="M 39.5,18.5 C 37.3239,20.5152 34.8239,22.1819 32,23.5C 31.3164,25.4789 31.8164,27.1456 33.5,28.5C 32.624,29.2508 31.624,29.7508 30.5,30C 31.0712,31.2051 31.7379,32.3717 32.5,33.5C 34.0983,32.5153 35.765,32.3486 37.5,33C 39.2484,36.2602 41.915,38.0935 45.5,38.5C 45.33,39.8221 45.6634,40.9887 46.5,42C 48.8991,42.711 51.2324,42.5443 53.5,41.5C 55.3761,42.9902 56.0428,44.6569 55.5,46.5C 52.3408,44.9205 49.0075,43.9205 45.5,43.5C 43.1732,42.1413 40.8399,40.6413 38.5,39C 36.5273,38.5045 34.5273,38.3379 32.5,38.5C 32.1697,57.674 32.503,76.674 33.5,95.5C 33.8417,96.3382 34.5084,96.6716 35.5,96.5C 37.3069,95.3852 39.3069,94.7186 41.5,94.5C 42.7716,94.5698 43.9383,94.9032 45,95.5C 45.3336,90.3401 47.8336,88.3401 52.5,89.5C 52.4434,85.194 54.7767,82.5273 59.5,81.5C 60.5244,80.1482 61.5244,78.8149 62.5,77.5C 64.6397,74.9387 66.973,72.6054 69.5,70.5C 70.1667,70.5 70.8333,70.5 71.5,70.5C 68.662,72.5357 68.9954,74.0357 72.5,75C 75.1194,74.9167 77.786,74.75 80.5,74.5C 80.0338,76.2012 80.0338,77.7012 80.5,79C 84.7909,80.1783 89.1242,81.1783 93.5,82C 91.0154,84.8169 91.8487,86.6502 96,87.5C 97.9834,86.0915 100.15,85.0915 102.5,84.5C 103.521,85.0016 103.688,85.6683 103,86.5C 101.933,87.1905 100.766,87.6905 99.5,88C 102.122,89.4748 104.788,90.6414 107.5,91.5C 106.833,91.5 106.167,91.5 105.5,91.5C 101.958,91.1872 98.6248,91.5206 95.5,92.5C 93.0301,92.6535 91.0301,93.6535 89.5,95.5C 89.1667,96.5 88.5,97.1667 87.5,97.5C 65.9686,110.098 44.3019,122.432 22.5,134.5C 19.595,132.86 17.2616,133.527 15.5,136.5C 12.5719,137.484 9.57186,137.817 6.5,137.5C 6.5,103.5 6.5,69.5 6.5,35.5C 7.16667,34.5 7.83333,33.5 8.5,32.5C 18.646,27.5969 28.9794,22.9302 39.5,18.5 Z"/></g>
<g><path style="opacity:1" fill="#75409d" d="M 205.5,43.5 C 205.918,42.7784 206.584,42.2784 207.5,42C 206.167,40.6667 206.167,39.3333 207.5,38C 212.097,36.6842 216.764,35.6842 221.5,35C 220.672,34.0853 219.672,33.4186 218.5,33C 206.961,30.3438 195.294,28.3438 183.5,27C 169.131,27.1529 155.131,26.3195 141.5,24.5C 172.739,21.9332 203.072,25.9332 232.5,36.5C 233.711,37.2739 233.711,38.1072 232.5,39C 223.383,39.8972 214.383,41.3972 205.5,43.5 Z"/></g>
<g><path style="opacity:1" fill="#d6283c" d="M 108.5,30.5 C 108.177,36.69 108.51,42.69 109.5,48.5C 109.5,50.8333 109.5,53.1667 109.5,55.5C 109.5,63.5 109.5,71.5 109.5,79.5C 109.826,83.8839 109.492,88.2172 108.5,92.5C 107.893,92.3764 107.56,92.0431 107.5,91.5C 108.165,88.0159 108.499,84.3492 108.5,80.5C 107.067,59.1925 106.234,37.8591 106,16.5C 104.255,14.9109 103.088,12.9109 102.5,10.5C 100.929,9.69063 99.2624,9.35729 97.5,9.5C 97.67,8.17793 97.3366,7.01127 96.5,6C 94.3807,5.90245 92.714,5.06911 91.5,3.5C 86.8687,2.33836 82.202,2.17169 77.5,3C 75.3428,4.91207 73.0094,6.57874 70.5,8C 64.9297,8.29755 59.5963,9.46422 54.5,11.5C 64.0575,5.89923 74.3908,2.23257 85.5,0.5C 102.765,2.99782 110.432,12.9978 108.5,30.5 Z"/></g>
<g><path style="opacity:1" fill="#fdfcfb" d="M 36.5,41.5 C 36.8333,41.5 37.1667,41.5 37.5,41.5C 42.7568,46.4726 48.7568,50.4726 55.5,53.5C 61.5,57.8333 67.5,62.1667 73.5,66.5C 72.1667,67.8333 70.8333,69.1667 69.5,70.5C 65.6367,71.6936 62.6367,74.027 60.5,77.5C 52.178,82.6656 44.178,88.3322 36.5,94.5C 35.1685,86.0262 34.5018,77.1929 34.5,68C 34.5018,58.8071 35.1685,49.9738 36.5,41.5 Z"/></g>
<g><path style="opacity:1" fill="#d8434b" d="M 45.5,43.5 C 49.0075,43.9205 52.3408,44.9205 55.5,46.5C 55.5,46.8333 55.5,47.1667 55.5,47.5C 51.6733,47.2484 48.3399,45.9151 45.5,43.5 Z"/></g>
<g><path style="opacity:1" fill="#dd2432" d="M 6.5,35.5 C 6.5,69.5 6.5,103.5 6.5,137.5C 9.57186,137.817 12.5719,137.484 15.5,136.5C 17.2616,133.527 19.595,132.86 22.5,134.5C 18.167,137.669 13.5003,140.336 8.5,142.5C 7.5,142.5 6.5,142.5 5.5,142.5C 5.16826,106.663 5.50159,70.9961 6.5,35.5 Z"/></g>
<g><path style="opacity:1" fill="#e24f57" d="M 45.5,43.5 C 42.6726,43.4162 40.006,42.7496 37.5,41.5C 37.1667,41.5 36.8333,41.5 36.5,41.5C 35.791,40.596 34.791,40.2627 33.5,40.5C 33.5,58.8333 33.5,77.1667 33.5,95.5C 32.503,76.674 32.1697,57.674 32.5,38.5C 34.5273,38.3379 36.5273,38.5045 38.5,39C 40.8399,40.6413 43.1732,42.1413 45.5,43.5 Z"/></g>
<g><path style="opacity:1" fill="#ffd3d8" d="M 36.5,41.5 C 35.1685,49.9738 34.5018,58.8071 34.5,68C 34.5018,77.1929 35.1685,86.0262 36.5,94.5C 36.1667,95.1667 35.8333,95.8333 35.5,96.5C 34.5084,96.6716 33.8417,96.3382 33.5,95.5C 33.5,77.1667 33.5,58.8333 33.5,40.5C 34.791,40.2627 35.791,40.596 36.5,41.5 Z"/></g>
<g><path style="opacity:1" fill="#d6bdb9" d="M 37.5,41.5 C 40.006,42.7496 42.6726,43.4162 45.5,43.5C 48.3399,45.9151 51.6733,47.2484 55.5,47.5C 55.5,48.1667 55.8333,48.5 56.5,48.5C 64.1683,52.1199 72.1683,55.2866 80.5,58C 81.5171,59.0495 81.6838,60.2161 81,61.5C 79.2196,62.6394 77.3863,63.6394 75.5,64.5C 75.5,63.5 75.5,62.5 75.5,61.5C 76.8333,61.5 78.1667,61.5 79.5,61.5C 79.5,60.5 79.5,59.5 79.5,58.5C 74.8823,57.6086 70.3823,56.2753 66,54.5C 62.5418,53.7135 59.0418,53.3802 55.5,53.5C 48.7568,50.4726 42.7568,46.4726 37.5,41.5 Z"/></g>
<g><path style="opacity:1" fill="#c9c7c6" d="M 55.5,53.5 C 59.0418,53.3802 62.5418,53.7135 66,54.5C 70.3823,56.2753 74.8823,57.6086 79.5,58.5C 79.5,59.5 79.5,60.5 79.5,61.5C 78.1667,61.5 76.8333,61.5 75.5,61.5C 75.5,62.5 75.5,63.5 75.5,64.5C 74.8333,65.1667 74.1667,65.8333 73.5,66.5C 67.5,62.1667 61.5,57.8333 55.5,53.5 Z"/></g>
<g><path style="opacity:1" fill="#de494d" d="M 56.5,48.5 C 62.7086,48.5148 68.3752,50.3481 73.5,54C 77.3127,54.1483 80.4794,55.6483 83,58.5C 83.6667,59.5 83.6667,60.5 83,61.5C 79.5895,65.1122 75.7562,68.1122 71.5,70.5C 70.8333,70.5 70.1667,70.5 69.5,70.5C 70.8333,69.1667 72.1667,67.8333 73.5,66.5C 74.1667,65.8333 74.8333,65.1667 75.5,64.5C 77.3863,63.6394 79.2196,62.6394 81,61.5C 81.6838,60.2161 81.5171,59.0495 80.5,58C 72.1683,55.2866 64.1683,52.1199 56.5,48.5 Z"/></g>
<g><path style="opacity:0.737" fill="#704696" d="M 177.5,62.5 C 200.55,63.3446 222.217,69.0113 242.5,79.5C 239.187,78.9552 235.854,78.4552 232.5,78C 231.167,77.3333 231.167,76.6667 232.5,76C 215.564,69.1454 197.898,65.1454 179.5,64C 178.584,63.7216 177.918,63.2216 177.5,62.5 Z"/></g>
<g><path style="opacity:1" fill="#ed7a80" d="M 69.5,70.5 C 66.973,72.6054 64.6397,74.9387 62.5,77.5C 61.8333,77.5 61.1667,77.5 60.5,77.5C 62.6367,74.027 65.6367,71.6936 69.5,70.5 Z"/></g>
<g><path style="opacity:1" fill="#8e3085" d="M 109.5,55.5 C 110.627,66.0028 111.627,76.6695 112.5,87.5C 112.497,90.3555 112.164,93.0221 111.5,95.5C 109.901,95.7678 108.568,95.4345 107.5,94.5C 108.5,94.5 109.5,94.5 110.5,94.5C 110.821,89.3054 110.487,84.3054 109.5,79.5C 109.5,71.5 109.5,63.5 109.5,55.5 Z"/></g>
<g><path style="opacity:1" fill="#b6285c" d="M 109.5,79.5 C 110.487,84.3054 110.821,89.3054 110.5,94.5C 109.5,94.5 108.5,94.5 107.5,94.5C 106.833,93.5 106.167,92.5 105.5,91.5C 106.167,91.5 106.833,91.5 107.5,91.5C 107.56,92.0431 107.893,92.3764 108.5,92.5C 109.492,88.2172 109.826,83.8839 109.5,79.5 Z"/></g>
<g><path style="opacity:0.694" fill="#b12c3f" d="M 8.5,32.5 C 7.83333,33.5 7.16667,34.5 6.5,35.5C 5.50159,70.9961 5.16826,106.663 5.5,142.5C 6.5,142.5 7.5,142.5 8.5,142.5C 7.73867,143.391 6.73867,144.058 5.5,144.5C 4.33342,107.838 4.16675,71.1712 5,34.5C 5.81595,33.1772 6.98261,32.5106 8.5,32.5 Z"/></g>
<g><path style="opacity:1" fill="#e63b40" d="M 60.5,77.5 C 61.1667,77.5 61.8333,77.5 62.5,77.5C 61.5244,78.8149 60.5244,80.1482 59.5,81.5C 54.7767,82.5273 52.4434,85.194 52.5,89.5C 47.8336,88.3401 45.3336,90.3401 45,95.5C 43.9383,94.9032 42.7716,94.5698 41.5,94.5C 39.3069,94.7186 37.3069,95.3852 35.5,96.5C 35.8333,95.8333 36.1667,95.1667 36.5,94.5C 44.178,88.3322 52.178,82.6656 60.5,77.5 Z"/></g>
<g><path style="opacity:1" fill="#b02559" d="M 95.5,92.5 C 93.9699,94.3465 91.9699,95.3465 89.5,95.5C 91.0301,93.6535 93.0301,92.6535 95.5,92.5 Z"/></g>
<g><path style="opacity:0.329" fill="#66388c" d="M 256.5,87.5 C 259.414,88.9061 261.914,90.9061 264,93.5C 264.601,94.9653 264.101,95.9653 262.5,96.5C 238.791,94.8566 215.124,95.5233 191.5,98.5C 191.918,97.7784 192.584,97.2784 193.5,97C 197.872,96.5785 202.205,95.9119 206.5,95C 224.842,94.833 243.176,94.333 261.5,93.5C 259.093,92.0949 257.426,90.0949 256.5,87.5 Z"/></g>
<g><path style="opacity:1" fill="#582c92" d="M 105.5,91.5 C 106.167,92.5 106.833,93.5 107.5,94.5C 108.568,95.4345 109.901,95.7678 111.5,95.5C 110.955,98.8131 110.455,102.146 110,105.5C 107.287,110.86 104.621,116.193 102,121.5C 99.054,124.692 96.8874,127.859 95.5,131C 92.6677,132.908 93.001,133.741 96.5,133.5C 93.8975,135.142 91.2308,136.808 88.5,138.5C 87.5008,124.85 87.1675,111.183 87.5,97.5C 88.5,97.1667 89.1667,96.5 89.5,95.5C 91.9699,95.3465 93.9699,94.3465 95.5,92.5C 98.6248,91.5206 101.958,91.1872 105.5,91.5 Z"/></g>
</svg>
